<?xml version="1.0" encoding="UTF-8"?>
<svg width="19px" height="14px" viewBox="0 0 19 14" version="1.1" xmlns="http://www.w3.org/2000/svg" xmlns:xlink="http://www.w3.org/1999/xlink">
    <!-- Generator: Sketch 52.6 (67491) - http://www.bohemiancoding.com/sketch -->
    <title>wifi</title>
    <desc>Created with Sketch.</desc>
    <g id="Welcome" stroke="none" stroke-width="1" fill="none" fill-rule="evenodd">
        <g id="Hackathon_2_1440px" transform="translate(-24.000000, -261.000000)" fill="#FF8562" fill-rule="nonzero">
            <g id="wifi" transform="translate(24.000000, 261.000000)">
                <path d="M3.00341837,6.44385204 C2.61831633,6.82895408 2.61831633,7.45568878 3.00341837,7.84456633 C3.38852041,8.22966837 4.0152551,8.22966837 4.40413265,7.84456633 C7.06964286,5.17905612 11.4077041,5.17905612 14.0732143,7.84456633 C14.2657653,8.03711735 14.5187245,8.13528061 14.7716837,8.13528061 C15.0246429,8.13528061 15.277602,8.03711735 15.4701531,7.84456633 C15.8552551,7.45946429 15.8552551,6.83272959 15.4701531,6.44385204 C12.0344388,3.00436224 6.43913265,3.00436224 3.00341837,6.44385204 Z" id="Shape"></path>
                <path d="M5.67647959,9.11691327 C5.29137755,9.50201531 5.29137755,10.12875 5.67647959,10.5176276 C6.06158163,10.9027296 6.68831633,10.9027296 7.07719388,10.5176276 C8.26647959,9.32456633 10.2070918,9.32456633 11.3963776,10.5176276 C11.5889286,10.7101786 11.8418878,10.8083418 12.0948469,10.8083418 C12.3478061,10.8083418 12.6007653,10.7101786 12.7933163,10.5176276 C13.1784184,10.1325255 13.1784184,9.50579082 12.7933163,9.12068878 C10.8338265,7.15364796 7.6397449,7.15364796 5.67647959,9.11691327 Z" id="Shape"></path>
                <circle id="Oval" cx="9.23678571" cy="12.6734439" r="1.31765306"></circle>
                <path d="M18.1847449,3.72548469 C13.2501531,-1.20533163 5.22341837,-1.20533163 0.288826531,3.72548469 C-0.0962755102,4.11058673 -0.0962755102,4.73732143 0.288826531,5.12619898 C0.673928571,5.51130102 1.30066327,5.51130102 1.68954082,5.12619898 C5.85015306,0.961811224 12.6234184,0.961811224 16.7878061,5.12619898 C16.9803571,5.31875 17.2333163,5.41691327 17.4862755,5.41691327 C17.7392347,5.41691327 17.9921939,5.31875 18.1847449,5.12619898 C18.5698469,4.74109694 18.5698469,4.11436224 18.1847449,3.72548469 Z" id="Shape"></path>
            </g>
        </g>
    </g>
</svg>